<?xml version="1.0" encoding="UTF-8"?>
<!DOCTYPE svg PUBLIC "-//W3C//DTD SVG 1.1//EN" "http://www.w3.org/Graphics/SVG/1.1/DTD/svg11.dtd">
<!-- Creator: CorelDRAW 2020 (64-Bit) -->
<svg xmlns="http://www.w3.org/2000/svg" xml:space="preserve" width="176.389mm" height="176.389mm" version="1.1" style="shape-rendering:geometricPrecision; text-rendering:geometricPrecision; image-rendering:optimizeQuality; fill-rule:evenodd; clip-rule:evenodd"
viewBox="0 0 615.95 615.95"
 xmlns:xlink="http://www.w3.org/1999/xlink"
 xmlns:xodm="http://www.corel.com/coreldraw/odm/2003">
 <defs>
  <style type="text/css">
   <![CDATA[
    .fil0 {fill:#015496}
   ]]>
  </style>
 </defs>
 <g id="Слой_x0020_1">
  <metadata id="CorelCorpID_0Corel-Layer"/>
  <path class="fil0" d="M615.95 307.98c0,170.09 -137.89,307.98 -307.98,307.98 -170.09,0 -307.98,-137.89 -307.98,-307.98 0,-170.09 137.89,-307.98 307.98,-307.98 170.09,0 307.98,137.89 307.98,307.98zm-461.81 -92.39c0,-16.94 13.7,-30.8 30.64,-30.8l246.38 0c16.94,0 30.8,13.86 30.8,30.8l0 184.79c0,16.94 -13.86,30.8 -30.8,30.8l-246.38 0c-16.94,0 -30.8,-13.86 -30.8,-30.8l0.15 -184.79zm153.83 107.79l-123.19 -77 0 153.99 246.38 0 0 -153.99 -123.19 77zm0 -30.8l-123.19 -76.99 246.38 0 -123.19 76.99z"/>
 </g>
</svg>
