<?xml version="1.0" encoding="UTF-8"?>
<!DOCTYPE svg PUBLIC "-//W3C//DTD SVG 1.1//EN" "http://www.w3.org/Graphics/SVG/1.1/DTD/svg11.dtd">
<!-- Creator: CorelDRAW 2020 (64-Bit) -->
<svg xmlns="http://www.w3.org/2000/svg" xml:space="preserve" width="135.603mm" height="34.1137mm" version="1.1" style="shape-rendering:geometricPrecision; text-rendering:geometricPrecision; image-rendering:optimizeQuality; fill-rule:evenodd; clip-rule:evenodd"
viewBox="0 0 35949.93 9043.94"
 xmlns:xlink="http://www.w3.org/1999/xlink"
 xmlns:xodm="http://www.corel.com/coreldraw/odm/2003">
 <defs>
  <style type="text/css">
   <![CDATA[
    .str1 {stroke:#004D89;stroke-width:53.02;stroke-miterlimit:22.9256}
    .str0 {stroke:#FEFEFE;stroke-width:53.02;stroke-miterlimit:22.9256}
    .fil4 {fill:none}
    .fil0 {fill:#FEFEFE;fill-rule:nonzero}
    .fil1 {fill:#00A2A7;fill-rule:nonzero}
    .fil2 {fill:#015496;fill-rule:nonzero}
    .fil3 {fill:#115388;fill-rule:nonzero}
   ]]>
  </style>
 </defs>
 <g id="Слой_x0020_1">
  <metadata id="CorelCorpID_0Corel-Layer"/>
  <g id="_1588353518160">
   <polygon class="fil0" points="666.46,0 10344.47,0 10344.47,6706.5 666.46,6706.5 "/>
   <path class="fil1" d="M2052.52 5451.76c-269.11,0 -529.3,-36.48 -780.57,-109.41 -251.27,-72.96 -453.1,-167.79 -605.49,-284.52l267.5 -593.32c145.89,107 319.35,192.92 520.36,257.77 201.03,64.85 402.04,97.27 603.05,97.27 223.73,0 389.08,-33.24 496.08,-99.71 106.97,-66.46 160.47,-154.83 160.47,-265.06 0,-81.04 -31.6,-148.33 -94.83,-201.83 -63.23,-53.47 -144.27,-96.45 -243.16,-128.87 -98.89,-32.42 -232.64,-68.08 -401.22,-107 -259.39,-61.59 -471.74,-123.2 -637.09,-184.81 -165.35,-61.59 -307.21,-160.47 -425.56,-296.66 -118.32,-136.16 -177.49,-317.74 -177.49,-544.67 0,-197.77 53.5,-376.91 160.47,-537.41 107,-160.5 268.29,-287.75 483.91,-381.76 215.62,-94.04 479.03,-141.04 790.3,-141.04 217.21,0 429.59,25.93 637.09,77.81 207.5,51.88 389.05,126.46 544.7,223.7l-243.19 598.2c-314.48,-178.31 -628.98,-267.47 -943.48,-267.47 -220.47,0 -383.38,35.66 -488.76,106.97 -105.38,71.34 -158.06,165.35 -158.06,282.08 0,116.73 60.79,203.45 182.37,260.18 121.58,56.76 307.21,112.67 556.87,167.79 259.36,61.61 471.74,123.2 637.09,184.81 165.35,61.61 307.18,158.88 425.53,291.81 118.35,132.93 177.52,312.86 177.52,539.82 0,194.54 -54.32,372.03 -162.94,532.53 -108.59,160.5 -271.53,287.75 -488.76,381.76 -217.21,94.04 -481.47,141.04 -792.71,141.04zm3224.37 -1395.76l-457.16 476.59 0 860.82 -782.98 0 0 -3404.32 782.98 0 0 1590.3 1507.64 -1590.3 875.4 0 -1410.37 1517.37 1493.03 1886.96 -919.14 0 -1089.4 -1337.41zm3744.75 131.31l0 1206.1 -787.86 0 0 -1215.83 -1317.95 -2188.5 836.48 0 909.44 1512.49 909.44 -1512.49 773.28 0 -1322.83 2198.23z"/>
   <path class="fil2 str0" d="M12304.39 5451.76c-346.93,0 -660.61,-75.37 -941.07,-226.14 -280.44,-150.77 -500.93,-359.89 -661.4,-627.36 -160.5,-267.5 -240.75,-569.83 -240.75,-907 0,-337.2 80.25,-639.53 240.75,-907.03 160.47,-267.47 380.97,-476.59 661.4,-627.36 280.46,-150.77 595.76,-226.14 945.92,-226.14 295.04,0 561.72,51.88 800.03,155.62 238.28,103.76 438.49,252.89 600.61,447.43l-505.78 466.89c-230.2,-265.88 -515.51,-398.81 -855.94,-398.81 -210.76,0 -398.81,46.21 -564.16,138.6 -165.35,92.42 -294.22,221.29 -386.64,386.64 -92.39,165.35 -138.6,353.39 -138.6,564.16 0,210.74 46.21,398.78 138.6,564.13 92.42,165.35 221.29,294.22 386.64,386.64 165.35,92.39 353.39,138.6 564.16,138.6 340.43,0 625.74,-134.54 855.94,-403.66l505.78 466.89c-162.12,197.77 -363.12,348.54 -603.05,452.28 -239.93,103.76 -507.4,155.62 -802.44,155.62zm3511.3 0c-353.39,0 -671.93,-76.19 -955.62,-228.58 -283.7,-152.36 -505.81,-362.3 -666.28,-629.8 -160.5,-267.47 -240.75,-568.19 -240.75,-902.12 0,-333.96 80.25,-634.68 240.75,-902.15 160.47,-267.5 382.58,-477.41 666.28,-629.8 283.7,-152.39 602.23,-228.58 955.62,-228.58 353.42,0 671.16,76.19 953.21,228.58 282.08,152.39 504.16,362.3 666.28,629.8 162.12,267.47 243.16,568.19 243.16,902.15 0,333.93 -81.04,634.65 -243.16,902.12 -162.12,267.5 -384.2,477.44 -666.28,629.8 -282.05,152.39 -599.79,228.58 -953.21,228.58zm0 -671.13c201.03,0 382.58,-46.21 544.7,-138.6 162.12,-92.42 289.37,-221.29 381.76,-386.64 92.42,-165.35 138.63,-353.39 138.63,-564.13 0,-210.76 -46.21,-398.81 -138.63,-564.16 -92.39,-165.35 -219.64,-294.22 -381.76,-386.64 -162.12,-92.39 -343.66,-138.6 -544.7,-138.6 -201.01,0 -382.58,46.21 -544.67,138.6 -162.12,92.42 -289.37,221.29 -381.79,386.64 -92.39,165.35 -138.6,353.39 -138.6,564.16 0,210.74 46.21,398.78 138.6,564.13 92.42,165.35 219.67,294.22 381.79,386.64 162.09,92.39 343.66,138.6 544.67,138.6zm5578.24 -2791.55l0 3404.32 -646.82 0 -1697.3 -2066.92 0 2066.92 -778.13 0 0 -3404.32 651.67 0 1692.45 2066.92 0 -2066.92 778.13 0zm1512.49 641.97l-1089.37 0 0 -641.97 2966.63 0 0 641.97 -1089.4 0 0 2762.36 -787.86 0 0 -2762.36zm4469.38 2762.36l-656.55 -948.36 -38.92 0 -685.71 0 0 948.36 -787.86 0 0 -3404.32 1473.57 0c301.54,0 563.34,50.27 785.45,150.77 222.08,100.5 393.11,243.16 513.07,427.97 119.96,184.81 179.93,403.66 179.93,656.55 0,252.89 -60.79,470.92 -182.37,654.11 -121.58,183.19 -294.22,323.41 -517.95,420.68l763.55 1094.25 -846.21 0zm-14.58 -2169.04c0,-191.28 -61.61,-337.99 -184.81,-440.14 -123.22,-102.12 -303.16,-153.18 -539.85,-153.18l-641.94 0 0 1186.64 641.94 0c236.69,0 416.62,-51.88 539.85,-155.62 123.2,-103.76 184.81,-249.66 184.81,-437.7zm3068.72 2227.39c-353.39,0 -671.93,-76.19 -955.62,-228.58 -283.7,-152.36 -505.81,-362.3 -666.28,-629.8 -160.5,-267.47 -240.75,-568.19 -240.75,-902.12 0,-333.96 80.25,-634.68 240.75,-902.15 160.47,-267.5 382.58,-477.41 666.28,-629.8 283.7,-152.39 602.23,-228.58 955.62,-228.58 353.42,0 671.16,76.19 953.21,228.58 282.08,152.39 504.16,362.3 666.28,629.8 162.12,267.47 243.16,568.19 243.16,902.15 0,333.93 -81.04,634.65 -243.16,902.12 -162.12,267.5 -384.2,477.44 -666.28,629.8 -282.05,152.39 -599.79,228.58 -953.21,228.58zm0 -671.13c201.03,0 382.58,-46.21 544.7,-138.6 162.12,-92.42 289.37,-221.29 381.76,-386.64 92.42,-165.35 138.63,-353.39 138.63,-564.13 0,-210.76 -46.21,-398.81 -138.63,-564.16 -92.39,-165.35 -219.64,-294.22 -381.76,-386.64 -162.12,-92.39 -343.66,-138.6 -544.7,-138.6 -201.01,0 -382.58,46.21 -544.67,138.6 -162.12,92.42 -289.37,221.29 -381.79,386.64 -92.39,165.35 -138.6,353.39 -138.6,564.16 0,210.74 46.21,398.78 138.6,564.13 92.42,165.35 219.67,294.22 381.79,386.64 162.09,92.39 343.66,138.6 544.67,138.6zm2455.99 -2791.55l787.86 0 0 2762.36 1707.03 0 0 641.97 -2494.89 0 0 -3404.32z"/>
  </g>
  <g id="_1588353515472">
   <path class="fil3" d="M5439.88 6636.41l115.91 0 285.13 535.15 247.83 -535.15 113.47 0 -326.03 677.2c-40.75,84.7 -74.18,140.22 -100.32,166.36 -26.14,26.14 -63.41,39.13 -112.06,39.13 -29.59,0 -65.85,-6.89 -109.01,-20.68l0 -98.49c30.81,17.84 63.44,26.75 97.88,26.75 27.97,0 52.07,-9.12 72.53,-27.15 20.28,-18.03 42.76,-59.17 67.29,-123.41l-352.6 -639.71zm792.52 239.5l107 0 0 262.62 296.66 0 0 -262.62 106.97 0 0 631.02 -106.97 0 0 -279.64 -296.66 0 0 279.64 -107 0 0 -631.02zm671.34 0l107 0 0 481.26 297.27 -481.26 114.87 0 0 631.02 -106.97 0 0 -478.23 -296.87 478.23 -115.3 0 0 -631.02zm679.24 0l246.21 0c60.37,0 105.36,5.06 134.94,15.19 29.4,10.15 54.72,28.58 75.8,55.54 21.26,27.15 31.81,59.36 31.81,97.06 0,30.2 -6.28,56.52 -18.64,78.82 -12.57,22.51 -31.2,41.36 -56.34,56.34 29.59,9.94 54.11,28.37 73.75,55.51 19.46,26.96 29.19,59.17 29.19,96.26 -3.84,59.78 -25.34,104.16 -64.05,132.93 -38.71,28.98 -95.02,43.37 -168.8,43.37l-283.88 0 0 -631.02zm107 266.28l113.47 0c45.18,0 76.41,-2.44 93.21,-7.1 17.02,-4.85 32.21,-14.4 45.6,-28.98 13.36,-14.4 20.04,-31.81 20.04,-52.07 0,-33.43 -11.74,-56.55 -35.05,-69.72 -23.52,-13.15 -63.63,-19.64 -120.36,-19.64l-116.91 0 0 177.52zm0 277.2l140.43 0c60.37,0 101.91,-7.1 124.42,-21.08 22.48,-14.18 34.23,-38.31 35.45,-72.96 0,-20.04 -6.47,-38.89 -19.46,-56.12 -13.15,-17.23 -30.17,-28.15 -51.06,-32.61 -20.86,-4.67 -54.51,-6.89 -100.69,-6.89l-129.08 0 0 189.66zm955.83 -116.73l110.63 14.61c-17.23,64.24 -49.44,114.29 -96.45,149.74 -47.03,35.47 -107,53.29 -180.14,53.29 -92.02,0 -164.95,-28.37 -218.85,-85.1 -53.92,-56.52 -80.86,-136.16 -80.86,-238.49 0,-105.78 27.15,-188.04 81.65,-246.42 54.51,-58.56 125.24,-87.73 212.17,-87.73 84.09,0 152.78,28.55 206.07,85.92 53.31,57.34 80.06,137.99 80.06,241.94 0,6.28 -0.21,15.8 -0.61,28.37l-469.94 0c4.06,69.09 23.52,122.19 58.78,158.85 35.05,36.69 79.03,55.12 131.52,55.12 39.1,0 72.53,-10.31 100.08,-30.99 27.78,-20.68 49.66,-53.71 65.88,-99.1zm-350.16 -171.42l351.35 0c-4.64,-53.1 -18.21,-92.82 -40.32,-119.35 -33.83,-41.15 -78,-61.8 -132.11,-61.8 -49.05,0 -90.16,16.41 -123.62,49.23 -33.22,32.82 -51.67,76.8 -55.3,131.92zm595.94 617.63l0 -872.96 97.27 0 0 82.87c22.88,-32 48.83,-56.12 77.81,-72.14 28.76,-16.01 63.84,-24.1 104.96,-24.1 53.9,0 101.33,13.76 142.47,41.54 41.12,27.55 72.14,66.65 93.21,116.91 20.86,50.45 31.39,105.57 31.39,165.75 0,64.24 -11.53,122.19 -34.65,173.86 -23.09,51.48 -56.73,90.99 -100.9,118.56 -43.98,27.36 -90.38,41.12 -139.02,41.12 -35.66,0 -67.68,-7.48 -95.84,-22.48 -28.37,-15.01 -51.46,-33.83 -69.7,-56.73l0 307.79 -107 0zm97.27 -553.61c0,80.86 16.41,140.64 49.02,179.35 32.85,38.71 72.56,58.14 119.17,58.14 47.4,0 87.94,-20.04 121.58,-60.18 33.83,-40.11 50.66,-102.12 50.66,-186.21 0,-80.25 -16.41,-140.22 -49.44,-180.14 -33.03,-39.93 -72.35,-59.78 -118.13,-59.78 -45.41,0 -85.53,21.29 -120.39,63.63 -35.05,42.55 -52.47,104.16 -52.47,185.21zm991.09 80.65l104.56 14.61c-11.56,71.92 -40.75,128.05 -87.96,168.8 -47.19,40.72 -105.36,60.98 -174.05,60.98 -86.13,0 -155.43,-28.15 -207.71,-84.49 -52.49,-56.34 -78.63,-136.98 -78.63,-241.94 0,-68.08 11.35,-127.47 33.85,-178.53 22.48,-50.87 56.73,-89.16 102.94,-114.5 46,-25.53 96.05,-38.28 150.34,-38.28 68.29,0 124.42,17.21 167.79,51.86 43.56,34.65 71.53,83.91 83.7,147.53l-103.34 15.8c-9.94,-42.34 -27.36,-74.15 -52.7,-95.65 -25.11,-21.26 -55.51,-32 -91.17,-32 -53.9,0 -97.67,19.25 -131.52,57.74 -33.64,38.71 -50.45,99.5 -50.45,182.98 0,84.7 16.2,146.1 48.62,184.41 32.64,38.28 74.97,57.53 127.07,57.53 42.15,0 77.2,-12.75 105.17,-38.49 28.15,-25.53 46,-65.03 53.5,-118.35zm607.9 151.99c-39.71,33.83 -78.02,57.56 -114.71,71.53 -36.66,14 -75.98,20.86 -118.13,20.86 -69.3,0 -122.59,-16.81 -159.86,-50.64 -37.3,-33.64 -55.94,-76.8 -55.94,-129.29 0,-30.81 7.1,-58.96 21.08,-84.49 14.18,-25.53 32.64,-45.81 55.33,-61.21 22.88,-15.4 48.41,-27.15 76.99,-35.05 21.08,-5.46 52.89,-10.74 95.25,-16.01 86.32,-10.13 150.13,-22.48 190.88,-36.66 0.4,-14.61 0.61,-23.91 0.61,-27.76 0,-43.37 -10.13,-73.97 -30.41,-91.81 -27.36,-24.13 -68.08,-36.06 -121.98,-36.06 -50.45,0 -87.75,8.91 -111.67,26.54 -24.1,17.63 -41.73,48.83 -53.29,93.82l-104.56 -14.61c9.52,-44.78 25.13,-81.04 47,-108.59 21.9,-27.57 53.5,-48.65 94.83,-63.65 41.15,-14.79 89.18,-22.27 143.48,-22.27 53.9,0 97.88,6.28 131.71,19.04 33.64,12.78 58.56,28.58 74.36,47.83 15.83,19.25 26.96,43.56 33.46,72.96 3.45,18.24 5.25,51.06 5.25,98.28l0 141.83c0,99.1 2.23,161.72 6.71,188.26 4.24,26.54 13.15,51.88 26.14,76.19l-111.88 0c-10.74,-22.48 -17.63,-48.83 -20.65,-79.03zm-8.51 -237.09c-38.92,15.8 -97.27,29.19 -175.08,40.14 -44.19,6.28 -75.4,13.36 -93.64,21.26 -18.24,7.9 -32.21,19.46 -42.13,34.46 -9.94,15.19 -15.01,32 -15.01,50.64 0,28.18 10.74,51.88 32.42,70.73 21.69,18.85 53.29,28.37 94.83,28.37 41.15,0 77.81,-8.91 110.02,-26.96 32.03,-17.82 55.73,-42.34 70.73,-73.33 11.56,-24.13 17.23,-59.6 17.23,-106.39l0.61 -38.92zm324.81 -314.9l497.27 0 0 630.41 -107 0 0 -541.65 -283.27 0 0 313.89c0,73.14 -2.44,121.37 -7.1,144.88 -4.85,23.3 -17.84,43.56 -39.1,61 -21.47,17.42 -52.28,26.14 -92.6,26.14 -24.92,0 -53.71,-1.64 -86.13,-4.67l0 -88.97 46.82 0c22.08,0 37.88,-2.23 47.43,-6.89 9.52,-4.45 15.8,-11.74 19.04,-21.66 3.05,-9.94 4.67,-42.15 4.67,-96.66l0 -415.83zm654.72 0l107 0 0 246.82 135.37 0c88.34,0 156.23,17.02 204.06,51.27 47.61,34.23 71.53,81.44 71.53,141.65 0,52.68 -19.86,97.67 -59.78,135.15 -39.71,37.49 -103.34,56.12 -190.88,56.12l-267.29 0 0 -631.02zm107 543.48l112.67 0c67.87,0 116.3,-8.3 145.28,-24.92 28.98,-16.62 43.56,-42.55 43.56,-77.81 0,-27.36 -10.74,-51.67 -32.21,-73.17 -21.47,-21.26 -68.9,-32 -142.44,-32l-126.86 0 0 207.9zm528.9 -543.48l107 0 0 262.62 296.66 0 0 -262.62 106.97 0 0 631.02 -106.97 0 0 -279.64 -296.66 0 0 279.64 -107 0 0 -631.02zm1083.51 551.99c-39.71,33.83 -78.02,57.56 -114.71,71.53 -36.66,14 -75.98,20.86 -118.13,20.86 -69.3,0 -122.59,-16.81 -159.86,-50.64 -37.3,-33.64 -55.94,-76.8 -55.94,-129.29 0,-30.81 7.1,-58.96 21.08,-84.49 14.18,-25.53 32.64,-45.81 55.33,-61.21 22.88,-15.4 48.41,-27.15 76.99,-35.05 21.08,-5.46 52.89,-10.74 95.25,-16.01 86.32,-10.13 150.13,-22.48 190.88,-36.66 0.4,-14.61 0.61,-23.91 0.61,-27.76 0,-43.37 -10.13,-73.97 -30.41,-91.81 -27.36,-24.13 -68.08,-36.06 -121.98,-36.06 -50.45,0 -87.75,8.91 -111.67,26.54 -24.1,17.63 -41.73,48.83 -53.29,93.82l-104.56 -14.61c9.52,-44.78 25.13,-81.04 47,-108.59 21.9,-27.57 53.5,-48.65 94.83,-63.65 41.15,-14.79 89.18,-22.27 143.48,-22.27 53.9,0 97.88,6.28 131.71,19.04 33.64,12.78 58.56,28.58 74.36,47.83 15.83,19.25 26.96,43.56 33.46,72.96 3.45,18.24 5.25,51.06 5.25,98.28l0 141.83c0,99.1 2.23,161.72 6.71,188.26 4.24,26.54 13.15,51.88 26.14,76.19l-111.88 0c-10.74,-22.48 -17.63,-48.83 -20.65,-79.03zm-8.51 -237.09c-38.92,15.8 -97.27,29.19 -175.08,40.14 -44.19,6.28 -75.4,13.36 -93.64,21.26 -18.24,7.9 -32.21,19.46 -42.13,34.46 -9.94,15.19 -15.01,32 -15.01,50.64 0,28.18 10.74,51.88 32.42,70.73 21.69,18.85 53.29,28.37 94.83,28.37 41.15,0 77.81,-8.91 110.02,-26.96 32.03,-17.82 55.73,-42.34 70.73,-73.33 11.56,-24.13 17.23,-59.6 17.23,-106.39l0.61 -38.92zm769.8 -314.9l0 631.02 -107 0 0 -245.6 -61.59 0c-37.49,0 -65.46,4.88 -83.91,14.79 -18.43,9.94 -45.39,40.93 -80.86,93.43l-94.01 137.38 -132.53 0 115.51 -169.41c35.26,-51.88 70.52,-81.04 105.57,-87.75 -61,-8.3 -106.39,-30.38 -135.98,-66.04 -29.59,-35.68 -44.38,-76.8 -44.38,-123.22 0,-54.9 19.25,-99.28 57.95,-133.32 38.71,-34.25 94.86,-51.27 168.19,-51.27l293.03 0zm-107 88.76l-151.96 0c-63.63,0 -104.77,9.94 -123.22,29.8 -18.43,19.86 -27.55,43.16 -27.55,69.7 0,37.7 13.57,65.46 40.72,83.09 26.96,17.63 74.97,26.54 143.88,26.54l118.13 0 0 -209.12zm1018.08 311.24l104.56 14.61c-11.56,71.92 -40.75,128.05 -87.96,168.8 -47.19,40.72 -105.36,60.98 -174.05,60.98 -86.13,0 -155.43,-28.15 -207.71,-84.49 -52.49,-56.34 -78.63,-136.98 -78.63,-241.94 0,-68.08 11.35,-127.47 33.85,-178.53 22.48,-50.87 56.73,-89.16 102.94,-114.5 46,-25.53 96.05,-38.28 150.34,-38.28 68.29,0 124.42,17.21 167.79,51.86 43.56,34.65 71.53,83.91 83.7,147.53l-103.34 15.8c-9.94,-42.34 -27.36,-74.15 -52.7,-95.65 -25.11,-21.26 -55.51,-32 -91.17,-32 -53.9,0 -97.67,19.25 -131.52,57.74 -33.64,38.71 -50.45,99.5 -50.45,182.98 0,84.7 16.2,146.1 48.62,184.41 32.64,38.28 74.97,57.53 127.07,57.53 42.15,0 77.2,-12.75 105.17,-38.49 28.15,-25.53 46,-65.03 53.5,-118.35zm195.73 -400l107 0 0 481.26 297.27 -481.26 114.87 0 0 631.02 -106.97 0 0 -478.23 -296.87 478.23 -115.3 0 0 -631.02zm1091.41 400l104.56 14.61c-11.56,71.92 -40.75,128.05 -87.96,168.8 -47.19,40.72 -105.36,60.98 -174.05,60.98 -86.13,0 -155.43,-28.15 -207.71,-84.49 -52.49,-56.34 -78.63,-136.98 -78.63,-241.94 0,-68.08 11.35,-127.47 33.85,-178.53 22.48,-50.87 56.73,-89.16 102.94,-114.5 46,-25.53 96.05,-38.28 150.34,-38.28 68.29,0 124.42,17.21 167.79,51.86 43.56,34.65 71.53,83.91 83.7,147.53l-103.34 15.8c-9.94,-42.34 -27.36,-74.15 -52.7,-95.65 -25.11,-21.26 -55.51,-32 -91.17,-32 -53.9,0 -97.67,19.25 -131.52,57.74 -33.64,38.71 -50.45,99.5 -50.45,182.98 0,84.7 16.2,146.1 48.62,184.41 32.64,38.28 74.97,57.53 127.07,57.53 42.15,0 77.2,-12.75 105.17,-38.49 28.15,-25.53 46,-65.03 53.5,-118.35zm139.79 -400l510.66 0 0 88.76 -201.83 0 0 542.26 -107 0 0 -542.26 -201.83 0 0 -88.76zm1029.61 426.75l110.63 14.61c-17.23,64.24 -49.44,114.29 -96.45,149.74 -47.03,35.47 -107,53.29 -180.14,53.29 -92.02,0 -164.95,-28.37 -218.85,-85.1 -53.92,-56.52 -80.86,-136.16 -80.86,-238.49 0,-105.78 27.15,-188.04 81.65,-246.42 54.51,-58.56 125.24,-87.73 212.17,-87.73 84.09,0 152.78,28.55 206.07,85.92 53.31,57.34 80.06,137.99 80.06,241.94 0,6.28 -0.21,15.8 -0.61,28.37l-469.94 0c4.06,69.09 23.52,122.19 58.78,158.85 35.05,36.69 79.03,55.12 131.52,55.12 39.1,0 72.53,-10.31 100.08,-30.99 27.78,-20.68 49.66,-53.71 65.88,-99.1zm-350.16 -171.42l351.35 0c-4.64,-53.1 -18.21,-92.82 -40.32,-119.35 -33.83,-41.15 -78,-61.8 -132.11,-61.8 -49.05,0 -90.16,16.41 -123.62,49.23 -33.22,32.82 -51.67,76.8 -55.3,131.92zm599.58 -255.33l164.55 0 166.78 504.98 184.6 -504.98 152.78 0 0 631.02 -107 0 0 -508.01 -185.82 508.01 -95.65 0 -175.69 -532.32 0 532.32 -104.56 0 0 -631.02zm1244.41 551.99c-39.71,33.83 -78.02,57.56 -114.71,71.53 -36.66,14 -75.98,20.86 -118.13,20.86 -69.3,0 -122.59,-16.81 -159.86,-50.64 -37.3,-33.64 -55.94,-76.8 -55.94,-129.29 0,-30.81 7.1,-58.96 21.08,-84.49 14.18,-25.53 32.64,-45.81 55.33,-61.21 22.88,-15.4 48.41,-27.15 76.99,-35.05 21.08,-5.46 52.89,-10.74 95.25,-16.01 86.32,-10.13 150.13,-22.48 190.88,-36.66 0.4,-14.61 0.61,-23.91 0.61,-27.76 0,-43.37 -10.13,-73.97 -30.41,-91.81 -27.36,-24.13 -68.08,-36.06 -121.98,-36.06 -50.45,0 -87.75,8.91 -111.67,26.54 -24.1,17.63 -41.73,48.83 -53.29,93.82l-104.56 -14.61c9.52,-44.78 25.13,-81.04 47,-108.59 21.9,-27.57 53.5,-48.65 94.83,-63.65 41.15,-14.79 89.18,-22.27 143.48,-22.27 53.9,0 97.88,6.28 131.71,19.04 33.64,12.78 58.56,28.58 74.36,47.83 15.83,19.25 26.96,43.56 33.46,72.96 3.45,18.24 5.25,51.06 5.25,98.28l0 141.83c0,99.1 2.23,161.72 6.71,188.26 4.24,26.54 13.15,51.88 26.14,76.19l-111.88 0c-10.74,-22.48 -17.63,-48.83 -20.65,-79.03zm-8.51 -237.09c-38.92,15.8 -97.27,29.19 -175.08,40.14 -44.19,6.28 -75.4,13.36 -93.64,21.26 -18.24,7.9 -32.21,19.46 -42.13,34.46 -9.94,15.19 -15.01,32 -15.01,50.64 0,28.18 10.74,51.88 32.42,70.73 21.69,18.85 53.29,28.37 94.83,28.37 41.15,0 77.81,-8.91 110.02,-26.96 32.03,-17.82 55.73,-42.34 70.73,-73.33 11.56,-24.13 17.23,-59.6 17.23,-106.39l0.61 -38.92zm605.46 558.67l-12.14 -98.89c23.49,6.28 43.77,9.52 61.19,9.52 23.91,0 42.97,-4.03 57.16,-11.93 14.37,-7.93 26.14,-19.06 35.26,-33.24 6.68,-10.74 17.63,-37.27 32.61,-79.85 2.04,-5.86 5.06,-14.58 9.52,-26.14l-239.5 -633.03 114.29 0 131.71 364.34c17.23,46 32.42,94.64 46,145.71 12.35,-48.04 26.96,-95.44 43.98,-142.05l134.54 -368 106.79 0 -238.49 641.97c-25.74,69.09 -45.81,116.52 -60.18,142.66 -19.06,35.05 -40.93,60.79 -65.46,77.2 -24.73,16.41 -54.11,24.52 -88.15,24.52 -20.68,0 -43.77,-4.27 -69.11,-12.78zm612.78 -873.57l498.49 0 0 631.02 -107 0 0 -542.26 -284.49 0 0 542.26 -107 0 0 -631.02zm658.38 872.96l0 -872.96 97.27 0 0 82.87c22.88,-32 48.83,-56.12 77.81,-72.14 28.76,-16.01 63.84,-24.1 104.96,-24.1 53.9,0 101.33,13.76 142.47,41.54 41.12,27.55 72.14,66.65 93.21,116.91 20.86,50.45 31.39,105.57 31.39,165.75 0,64.24 -11.53,122.19 -34.65,173.86 -23.09,51.48 -56.73,90.99 -100.9,118.56 -43.98,27.36 -90.38,41.12 -139.02,41.12 -35.66,0 -67.68,-7.48 -95.84,-22.48 -28.37,-15.01 -51.46,-33.83 -69.7,-56.73l0 307.79 -107 0zm97.27 -553.61c0,80.86 16.41,140.64 49.02,179.35 32.85,38.71 72.56,58.14 119.17,58.14 47.4,0 87.94,-20.04 121.58,-60.18 33.83,-40.11 50.66,-102.12 50.66,-186.21 0,-80.25 -16.41,-140.22 -49.44,-180.14 -33.03,-39.93 -72.35,-59.78 -118.13,-59.78 -45.41,0 -85.53,21.29 -120.39,63.63 -35.05,42.55 -52.47,104.16 -52.47,185.21zm991.09 232.64c-39.71,33.83 -78.02,57.56 -114.71,71.53 -36.66,14 -75.98,20.86 -118.13,20.86 -69.3,0 -122.59,-16.81 -159.86,-50.64 -37.3,-33.64 -55.94,-76.8 -55.94,-129.29 0,-30.81 7.1,-58.96 21.08,-84.49 14.18,-25.53 32.64,-45.81 55.33,-61.21 22.88,-15.4 48.41,-27.15 76.99,-35.05 21.08,-5.46 52.89,-10.74 95.25,-16.01 86.32,-10.13 150.13,-22.48 190.88,-36.66 0.4,-14.61 0.61,-23.91 0.61,-27.76 0,-43.37 -10.13,-73.97 -30.41,-91.81 -27.36,-24.13 -68.08,-36.06 -121.98,-36.06 -50.45,0 -87.75,8.91 -111.67,26.54 -24.1,17.63 -41.73,48.83 -53.29,93.82l-104.56 -14.61c9.52,-44.78 25.13,-81.04 47,-108.59 21.9,-27.57 53.5,-48.65 94.83,-63.65 41.15,-14.79 89.18,-22.27 143.48,-22.27 53.9,0 97.88,6.28 131.71,19.04 33.64,12.78 58.56,28.58 74.36,47.83 15.83,19.25 26.96,43.56 33.46,72.96 3.45,18.24 5.25,51.06 5.25,98.28l0 141.83c0,99.1 2.23,161.72 6.71,188.26 4.24,26.54 13.15,51.88 26.14,76.19l-111.88 0c-10.74,-22.48 -17.63,-48.83 -20.65,-79.03zm-8.51 -237.09c-38.92,15.8 -97.27,29.19 -175.08,40.14 -44.19,6.28 -75.4,13.36 -93.64,21.26 -18.24,7.9 -32.21,19.46 -42.13,34.46 -9.94,15.19 -15.01,32 -15.01,50.64 0,28.18 10.74,51.88 32.42,70.73 21.69,18.85 53.29,28.37 94.83,28.37 41.15,0 77.81,-8.91 110.02,-26.96 32.03,-17.82 55.73,-42.34 70.73,-73.33 11.56,-24.13 17.23,-59.6 17.23,-106.39l0.61 -38.92zm272.53 -314.9l246.21 0c60.37,0 105.36,5.06 134.94,15.19 29.4,10.15 54.72,28.58 75.8,55.54 21.26,27.15 31.81,59.36 31.81,97.06 0,30.2 -6.28,56.52 -18.64,78.82 -12.57,22.51 -31.2,41.36 -56.34,56.34 29.59,9.94 54.11,28.37 73.75,55.51 19.46,26.96 29.19,59.17 29.19,96.26 -3.84,59.78 -25.34,104.16 -64.05,132.93 -38.71,28.98 -95.02,43.37 -168.8,43.37l-283.88 0 0 -631.02zm107 266.28l113.47 0c45.18,0 76.41,-2.44 93.21,-7.1 17.02,-4.85 32.21,-14.4 45.6,-28.98 13.36,-14.4 20.04,-31.81 20.04,-52.07 0,-33.43 -11.74,-56.55 -35.05,-69.72 -23.52,-13.15 -63.63,-19.64 -120.36,-19.64l-116.91 0 0 177.52zm0 277.2l140.43 0c60.37,0 101.91,-7.1 124.42,-21.08 22.48,-14.18 34.23,-38.31 35.45,-72.96 0,-20.04 -6.47,-38.89 -19.46,-56.12 -13.15,-17.23 -30.17,-28.15 -51.06,-32.61 -20.86,-4.67 -54.51,-6.89 -100.69,-6.89l-129.08 0 0 189.66zm563.31 -543.48l497.27 0 0 630.41 -107 0 0 -541.65 -283.27 0 0 313.89c0,73.14 -2.44,121.37 -7.1,144.88 -4.85,23.3 -17.84,43.56 -39.1,61 -21.47,17.42 -52.28,26.14 -92.6,26.14 -24.92,0 -53.71,-1.64 -86.13,-4.67l0 -88.97 46.82 0c22.08,0 37.88,-2.23 47.43,-6.89 9.52,-4.45 15.8,-11.74 19.04,-21.66 3.05,-9.94 4.67,-42.15 4.67,-96.66l0 -415.83zm1087.57 426.75l110.63 14.61c-17.23,64.24 -49.44,114.29 -96.45,149.74 -47.03,35.47 -107,53.29 -180.14,53.29 -92.02,0 -164.95,-28.37 -218.85,-85.1 -53.92,-56.52 -80.86,-136.16 -80.86,-238.49 0,-105.78 27.15,-188.04 81.65,-246.42 54.51,-58.56 125.24,-87.73 212.17,-87.73 84.09,0 152.78,28.55 206.07,85.92 53.31,57.34 80.06,137.99 80.06,241.94 0,6.28 -0.21,15.8 -0.61,28.37l-469.94 0c4.06,69.09 23.52,122.19 58.78,158.85 35.05,36.69 79.03,55.12 131.52,55.12 39.1,0 72.53,-10.31 100.08,-30.99 27.78,-20.68 49.66,-53.71 65.88,-99.1zm-350.16 -171.42l351.35 0c-4.64,-53.1 -18.21,-92.82 -40.32,-119.35 -33.83,-41.15 -78,-61.8 -132.11,-61.8 -49.05,0 -90.16,16.41 -123.62,49.23 -33.22,32.82 -51.67,76.8 -55.3,131.92zm595.94 -255.33l107 0 0 262.62 296.66 0 0 -262.62 106.97 0 0 631.02 -106.97 0 0 -279.64 -296.66 0 0 279.64 -107 0 0 -631.02zm671.34 0l107 0 0 481.26 297.27 -481.26 114.87 0 0 631.02 -106.97 0 0 -478.23 -296.87 478.23 -115.3 0 0 -631.02zm1176.51 0l0 631.02 -107 0 0 -245.6 -61.59 0c-37.49,0 -65.46,4.88 -83.91,14.79 -18.43,9.94 -45.39,40.93 -80.86,93.43l-94.01 137.38 -132.53 0 115.51 -169.41c35.26,-51.88 70.52,-81.04 105.57,-87.75 -61,-8.3 -106.39,-30.38 -135.98,-66.04 -29.59,-35.68 -44.38,-76.8 -44.38,-123.22 0,-54.9 19.25,-99.28 57.95,-133.32 38.71,-34.25 94.86,-51.27 168.19,-51.27l293.03 0zm-107 88.76l-151.96 0c-63.63,0 -104.77,9.94 -123.22,29.8 -18.43,19.86 -27.55,43.16 -27.55,69.7 0,37.7 13.57,65.46 40.72,83.09 26.96,17.63 74.97,26.54 143.88,26.54l118.13 0 0 -209.12zm624.15 -328.26l565.35 0 0 102.12 -449.84 0 0 268.69 207.9 0c76.8,0 137.78,7.29 183.17,22.08 45.41,14.61 81.68,42.15 109.04,82.87 27.36,40.54 40.93,87.75 40.93,141.65 0,43.98 -9.73,85.13 -29.4,123.22 -19.64,38.28 -48.83,69.49 -87.73,93.61 -38.71,24.1 -104.98,36.27 -198.38,36.27l-341.04 0 0 -870.52zm115.51 772.03l230.38 0c62.22,0 108.83,-12.57 140.03,-37.88 30.99,-25.34 46.61,-63.23 46.61,-113.68 0,-36.08 -8.91,-66.07 -26.75,-90.16 -17.84,-24.13 -42.55,-40.14 -74.18,-48.04 -31.81,-7.9 -85.9,-11.74 -162.3,-11.74l-153.79 0 0 301.51zm678.82 -772.03l683.3 0 0 870.52 -115.51 0 0 -768.4 -452.28 0 0 768.4 -115.51 0 0 -870.52zm937.2 0l543.48 0 0 870.52 -115.51 0 0 -768.4 -312.46 0 0 448.44c0,91.17 -4.27,157.85 -12.78,200.21 -8.51,42.55 -26.54,75.37 -53.9,99.07 -27.36,23.52 -62.22,35.26 -104.16,35.26 -25.53,0 -56.12,-5.25 -91.78,-15.8l20.65 -102.12c18.85,9.73 35.07,14.58 48.44,14.58 25.95,0 45.6,-9.73 58.56,-29.37 12.96,-19.67 19.46,-65.85 19.46,-138.81l0 -613.57zm638.1 870.52l333.96 -870.52 126.64 0 354.4 870.52 -131.1 0 -100.72 -263.84 -366.57 0 -94.43 263.84 -122.19 0zm250.48 -357.45l296.66 0 -90.8 -241.36c-27.36,-73.33 -48.01,-133.93 -62.41,-181.76 -11.96,56.73 -27.97,112.46 -48.01,167.58l-95.44 255.54zm1392.53 126.43l104.56 14.61c-11.56,71.92 -40.75,128.05 -87.96,168.8 -47.19,40.72 -105.36,60.98 -174.05,60.98 -86.13,0 -155.43,-28.15 -207.71,-84.49 -52.49,-56.34 -78.63,-136.98 -78.63,-241.94 0,-68.08 11.35,-127.47 33.85,-178.53 22.48,-50.87 56.73,-89.16 102.94,-114.5 46,-25.53 96.05,-38.28 150.34,-38.28 68.29,0 124.42,17.21 167.79,51.86 43.56,34.65 71.53,83.91 83.7,147.53l-103.34 15.8c-9.94,-42.34 -27.36,-74.15 -52.7,-95.65 -25.11,-21.26 -55.51,-32 -91.17,-32 -53.9,0 -97.67,19.25 -131.52,57.74 -33.64,38.71 -50.45,99.5 -50.45,182.98 0,84.7 16.2,146.1 48.62,184.41 32.64,38.28 74.97,57.53 127.07,57.53 42.15,0 77.2,-12.75 105.17,-38.49 28.15,-25.53 46,-65.03 53.5,-118.35zm-23724.52 958.27l246.21 0c60.37,0 105.36,5.06 134.94,15.19 29.4,10.15 54.72,28.58 75.8,55.54 21.26,27.15 31.81,59.36 31.81,97.06 0,30.2 -6.28,56.52 -18.64,78.82 -12.57,22.51 -31.2,41.36 -56.34,56.34 29.59,9.94 54.11,28.37 73.75,55.51 19.46,26.96 29.19,59.17 29.19,96.26 -3.84,59.78 -25.34,104.16 -64.05,132.93 -38.71,28.98 -95.02,43.37 -168.8,43.37l-283.88 0 0 -631.02zm107 266.28l113.47 0c45.18,0 76.41,-2.44 93.21,-7.1 17.02,-4.85 32.21,-14.4 45.6,-28.98 13.36,-14.4 20.04,-31.81 20.04,-52.07 0,-33.43 -11.74,-56.55 -35.05,-69.72 -23.52,-13.15 -63.63,-19.64 -120.36,-19.64l-116.91 0 0 177.52zm0 277.2l140.43 0c60.37,0 101.91,-7.1 124.42,-21.08 22.48,-14.18 34.23,-38.31 35.45,-72.96 0,-20.04 -6.47,-38.89 -19.46,-56.12 -13.15,-17.23 -30.17,-28.15 -51.06,-32.61 -20.86,-4.67 -54.51,-6.89 -100.69,-6.89l-129.08 0 0 189.66zm485.29 -227.97c0,-116.52 32.42,-202.84 97.48,-258.96 54.11,-46.61 120.36,-69.91 198.38,-69.91 86.53,0 157.45,28.37 212.57,85.1 54.9,56.52 82.48,134.97 82.48,234.86 0,81.04 -12.17,144.67 -36.48,191.09 -24.31,46.39 -59.78,82.45 -106.39,108.19 -46.39,25.74 -97.27,38.49 -152.17,38.49 -88.36,0 -159.68,-28.15 -214.18,-84.7 -54.51,-56.52 -81.68,-137.99 -81.68,-244.17zm109.44 0.21c0,80.65 17.63,141.04 52.89,180.94 35.45,40.14 79.83,60.18 133.54,60.18 53.1,0 97.27,-20.04 132.71,-60.37 35.26,-40.32 52.89,-101.72 52.89,-184.2 0,-77.81 -17.82,-136.8 -53.29,-176.7 -35.45,-40.14 -79.64,-60.18 -132.32,-60.18 -53.71,0 -98.09,19.86 -133.54,59.76 -35.26,39.93 -52.89,100.11 -52.89,180.57zm733.14 29.59l0 -83.91c44.99,-0.4 75.8,-2.23 91.99,-5.25 16.41,-3.26 32.03,-12.57 46.61,-28.39 14.58,-15.8 21.87,-35.45 21.87,-59.15 0,-28.58 -9.52,-51.7 -28.76,-68.72 -19.25,-17.21 -43.98,-25.72 -74.58,-25.72 -60.18,0 -102.33,35.26 -126.43,105.78l-102.15 -17.02c31.63,-117.55 108.22,-176.3 229.4,-176.3 67.29,0 119.96,18.24 158.25,54.9 38.31,36.69 57.37,80.46 57.37,131.31 0,51.27 -24.95,92.21 -74.58,122.4 31.81,17.02 55.51,38.71 71.53,65.03 15.8,26.35 23.7,57.56 23.7,93.64 0,56.52 -20.65,102.33 -61.8,137.59 -41.33,35.23 -98.89,52.86 -173.06,52.86 -143.85,0 -227.36,-63.63 -250.24,-190.88l100.9 -21.87c9.12,40.11 27.57,71.32 55.51,93.4 27.97,22.11 59.78,33.03 95.86,33.03 36.06,0 66.07,-10.13 89.98,-30.59 23.89,-20.25 35.84,-46.21 35.84,-77.81 0,-24.52 -7.48,-45.78 -22.48,-64.02 -15.01,-18.24 -30.99,-29.59 -48.04,-34.04 -17.02,-4.67 -47.8,-6.89 -92.39,-6.89 -3.66,0 -11.74,0.19 -24.31,0.61zm421.26 -345.31l164.55 0 166.78 504.98 184.6 -504.98 152.78 0 0 631.02 -107 0 0 -508.01 -185.82 508.01 -95.65 0 -175.69 -532.32 0 532.32 -104.56 0 0 -631.02zm792.1 315.51c0,-116.52 32.42,-202.84 97.48,-258.96 54.11,-46.61 120.36,-69.91 198.38,-69.91 86.53,0 157.45,28.37 212.57,85.1 54.9,56.52 82.48,134.97 82.48,234.86 0,81.04 -12.17,144.67 -36.48,191.09 -24.31,46.39 -59.78,82.45 -106.39,108.19 -46.39,25.74 -97.27,38.49 -152.17,38.49 -88.36,0 -159.68,-28.15 -214.18,-84.7 -54.51,-56.52 -81.68,-137.99 -81.68,-244.17zm109.44 0.21c0,80.65 17.63,141.04 52.89,180.94 35.45,40.14 79.83,60.18 133.54,60.18 53.1,0 97.27,-20.04 132.71,-60.37 35.26,-40.32 52.89,-101.72 52.89,-184.2 0,-77.81 -17.82,-136.8 -53.29,-176.7 -35.45,-40.14 -79.64,-60.18 -132.32,-60.18 -53.71,0 -98.09,19.86 -133.54,59.76 -35.26,39.93 -52.89,100.11 -52.89,180.57z"/>
   <path class="fil3" d="M10511.07 8234.18l0 272.35c34.46,0 58.78,-6.5 72.75,-19.25 14,-12.96 34.04,-50.87 59.99,-114.08 24.31,-59.99 46.39,-98.09 66.25,-114.71 19.46,-16.2 50.27,-24.31 92.6,-24.31l39.1 0 0 88.15 -28.98 -0.61c-28.55,0 -46.61,4.27 -54.51,12.57 -8.3,8.72 -21.08,34.65 -38.1,77.81 -15.8,41.33 -30.38,69.7 -43.77,85.71 -13.36,15.83 -34.44,30.2 -62.8,43.37 46.21,12.35 91.17,55.12 135.15,128.47l117.34 195.55 -117.55 0 -114.29 -195.33c-23.3,-39.71 -43.77,-65.67 -60.98,-78.02 -17.44,-12.35 -38.1,-18.45 -62.22,-18.45l0 291.81 -109.41 0 0 -291.81c-23.73,0 -44.19,6.1 -61.4,18.24 -17.44,12.17 -37.7,38.31 -60.79,78.42l-115.3 195.15 -117.55 0 116.94 -195.55c44.38,-73.36 89.77,-116.12 135.95,-128.47 -31.6,-14.58 -53.9,-30.59 -66.46,-47.83 -12.75,-17.23 -31.6,-58.35 -56.95,-123.41 -8.7,-21.87 -18.03,-35.26 -27.94,-40.11 -10.34,-5.06 -25.53,-7.5 -45.81,-7.5 -5.06,0 -15.59,0.21 -31.42,0.61l0 -88.76 14.79 0c41.36,0 70.33,2.44 87.14,7.5 16.83,4.85 31.81,15.4 45.2,31.42 13.18,16.01 30.38,49.23 51.46,100.11 25.74,62.2 45.6,99.89 59.39,113.26 13.76,13.39 38.1,20.07 72.75,20.07l0 -272.35 109.41 0zm431.63 0l107 0 0 262.62 296.66 0 0 -262.62 106.97 0 0 631.02 -106.97 0 0 -279.64 -296.66 0 0 279.64 -107 0 0 -631.02zm631.2 315.51c0,-116.52 32.42,-202.84 97.48,-258.96 54.11,-46.61 120.36,-69.91 198.38,-69.91 86.53,0 157.45,28.37 212.57,85.1 54.9,56.52 82.48,134.97 82.48,234.86 0,81.04 -12.17,144.67 -36.48,191.09 -24.31,46.39 -59.78,82.45 -106.39,108.19 -46.39,25.74 -97.27,38.49 -152.17,38.49 -88.36,0 -159.68,-28.15 -214.18,-84.7 -54.51,-56.52 -81.68,-137.99 -81.68,-244.17zm109.44 0.21c0,80.65 17.63,141.04 52.89,180.94 35.45,40.14 79.83,60.18 133.54,60.18 53.1,0 97.27,-20.04 132.71,-60.37 35.26,-40.32 52.89,-101.72 52.89,-184.2 0,-77.81 -17.82,-136.8 -53.29,-176.7 -35.45,-40.14 -79.64,-60.18 -132.32,-60.18 -53.71,0 -98.09,19.86 -133.54,59.76 -35.26,39.93 -52.89,100.11 -52.89,180.57zm1019.06 84.28l104.56 14.61c-11.56,71.92 -40.75,128.05 -87.96,168.8 -47.19,40.72 -105.36,60.98 -174.05,60.98 -86.13,0 -155.43,-28.15 -207.71,-84.49 -52.49,-56.34 -78.63,-136.98 -78.63,-241.94 0,-68.08 11.35,-127.47 33.85,-178.53 22.48,-50.87 56.73,-89.16 102.94,-114.5 46,-25.53 96.05,-38.28 150.34,-38.28 68.29,0 124.42,17.21 167.79,51.86 43.56,34.65 71.53,83.91 83.7,147.53l-103.34 15.8c-9.94,-42.34 -27.36,-74.15 -52.7,-95.65 -25.11,-21.26 -55.51,-32 -91.17,-32 -53.9,0 -97.67,19.25 -131.52,57.74 -33.64,38.71 -50.45,99.5 -50.45,182.98 0,84.7 16.2,146.1 48.62,184.41 32.64,38.28 74.97,57.53 127.07,57.53 42.15,0 77.2,-12.75 105.17,-38.49 28.15,-25.53 46,-65.03 53.5,-118.35zm139.79 -400l510.66 0 0 88.76 -201.83 0 0 542.26 -107 0 0 -542.26 -201.83 0 0 -88.76zm610.34 0l107 0 0 246.82 135.37 0c88.34,0 156.23,17.02 204.06,51.27 47.61,34.23 71.53,81.44 71.53,141.65 0,52.68 -19.86,97.67 -59.78,135.15 -39.71,37.49 -103.34,56.12 -190.88,56.12l-267.29 0 0 -631.02zm107 543.48l112.67 0c67.87,0 116.3,-8.3 145.28,-24.92 28.98,-16.62 43.56,-42.55 43.56,-77.81 0,-27.36 -10.74,-51.67 -32.21,-73.17 -21.47,-21.26 -68.9,-32 -142.44,-32l-126.86 0 0 207.9zm530.12 -543.48l106.97 0 0 263.84 130.12 0c9.52,-89.98 37.67,-158.67 84.49,-206.07 47,-47.43 107.79,-71.13 182.58,-71.13 63.63,0 113.87,12.75 150.56,38.49 36.88,25.74 67.26,61 91.17,106.18 23.91,44.99 35.87,105.57 35.87,181.76 0,108.62 -24.71,191.09 -74.15,247.22 -49.44,56.15 -116.52,84.09 -201.22,84.09 -78.63,0 -141.65,-26.14 -189.26,-78.21 -47.43,-52.28 -74.18,-123.81 -80.04,-214.79l-130.12 0 0 279.64 -106.97 0 0 -631.02zm510.02 77.81c-52.28,0 -93,20.07 -122.19,60.18 -29.16,39.93 -43.77,96.05 -43.77,168.4 0,86.53 14.61,149.76 43.98,190.09 29.37,40.32 68.69,60.37 117.74,60.37 48.83,0 88.76,-18.64 119.96,-55.91 30.99,-37.3 46.61,-97.48 46.61,-180.36 0,-80.86 -13.57,-141.65 -40.54,-181.97 -26.94,-40.51 -67.47,-60.79 -121.79,-60.79zm1150.61 474.18c-39.71,33.83 -78.02,57.56 -114.71,71.53 -36.66,14 -75.98,20.86 -118.13,20.86 -69.3,0 -122.59,-16.81 -159.86,-50.64 -37.3,-33.64 -55.94,-76.8 -55.94,-129.29 0,-30.81 7.1,-58.96 21.08,-84.49 14.18,-25.53 32.64,-45.81 55.33,-61.21 22.88,-15.4 48.41,-27.15 76.99,-35.05 21.08,-5.46 52.89,-10.74 95.25,-16.01 86.32,-10.13 150.13,-22.48 190.88,-36.66 0.4,-14.61 0.61,-23.91 0.61,-27.76 0,-43.37 -10.13,-73.97 -30.41,-91.81 -27.36,-24.13 -68.08,-36.06 -121.98,-36.06 -50.45,0 -87.75,8.91 -111.67,26.54 -24.1,17.63 -41.73,48.83 -53.29,93.82l-104.56 -14.61c9.52,-44.78 25.13,-81.04 47,-108.59 21.9,-27.57 53.5,-48.65 94.83,-63.65 41.15,-14.79 89.18,-22.27 143.48,-22.27 53.9,0 97.88,6.28 131.71,19.04 33.64,12.78 58.56,28.58 74.36,47.83 15.83,19.25 26.96,43.56 33.46,72.96 3.45,18.24 5.25,51.06 5.25,98.28l0 141.83c0,99.1 2.23,161.72 6.71,188.26 4.24,26.54 13.15,51.88 26.14,76.19l-111.88 0c-10.74,-22.48 -17.63,-48.83 -20.65,-79.03zm-8.51 -237.09c-38.92,15.8 -97.27,29.19 -175.08,40.14 -44.19,6.28 -75.4,13.36 -93.64,21.26 -18.24,7.9 -32.21,19.46 -42.13,34.46 -9.94,15.19 -15.01,32 -15.01,50.64 0,28.18 10.74,51.88 32.42,70.73 21.69,18.85 53.29,28.37 94.83,28.37 41.15,0 77.81,-8.91 110.02,-26.96 32.03,-17.82 55.73,-42.34 70.73,-73.33 11.56,-24.13 17.23,-59.6 17.23,-106.39l0.61 -38.92zm272.53 -314.9l246.21 0c60.37,0 105.36,5.06 134.94,15.19 29.4,10.15 54.72,28.58 75.8,55.54 21.26,27.15 31.81,59.36 31.81,97.06 0,30.2 -6.28,56.52 -18.64,78.82 -12.57,22.51 -31.2,41.36 -56.34,56.34 29.59,9.94 54.11,28.37 73.75,55.51 19.46,26.96 29.19,59.17 29.19,96.26 -3.84,59.78 -25.34,104.16 -64.05,132.93 -38.71,28.98 -95.02,43.37 -168.8,43.37l-283.88 0 0 -631.02zm107 266.28l113.47 0c45.18,0 76.41,-2.44 93.21,-7.1 17.02,-4.85 32.21,-14.4 45.6,-28.98 13.36,-14.4 20.04,-31.81 20.04,-52.07 0,-33.43 -11.74,-56.55 -35.05,-69.72 -23.52,-13.15 -63.63,-19.64 -120.36,-19.64l-116.91 0 0 177.52zm0 277.2l140.43 0c60.37,0 101.91,-7.1 124.42,-21.08 22.48,-14.18 34.23,-38.31 35.45,-72.96 0,-20.04 -6.47,-38.89 -19.46,-56.12 -13.15,-17.23 -30.17,-28.15 -51.06,-32.61 -20.86,-4.67 -54.51,-6.89 -100.69,-6.89l-129.08 0 0 189.66zm456.31 -543.48l510.66 0 0 88.76 -201.83 0 0 542.26 -107 0 0 -542.26 -201.83 0 0 -88.76zm559.07 315.51c0,-116.52 32.42,-202.84 97.48,-258.96 54.11,-46.61 120.36,-69.91 198.38,-69.91 86.53,0 157.45,28.37 212.57,85.1 54.9,56.52 82.48,134.97 82.48,234.86 0,81.04 -12.17,144.67 -36.48,191.09 -24.31,46.39 -59.78,82.45 -106.39,108.19 -46.39,25.74 -97.27,38.49 -152.17,38.49 -88.36,0 -159.68,-28.15 -214.18,-84.7 -54.51,-56.52 -81.68,-137.99 -81.68,-244.17zm109.44 0.21c0,80.65 17.63,141.04 52.89,180.94 35.45,40.14 79.83,60.18 133.54,60.18 53.1,0 97.27,-20.04 132.71,-60.37 35.26,-40.32 52.89,-101.72 52.89,-184.2 0,-77.81 -17.82,-136.8 -53.29,-176.7 -35.45,-40.14 -79.64,-60.18 -132.32,-60.18 -53.71,0 -98.09,19.86 -133.54,59.76 -35.26,39.93 -52.89,100.11 -52.89,180.57zm610.53 -315.72l164.55 0 166.78 504.98 184.6 -504.98 152.78 0 0 631.02 -107 0 0 -508.01 -185.82 508.01 -95.65 0 -175.69 -532.32 0 532.32 -104.56 0 0 -631.02zm1244.41 551.99c-39.71,33.83 -78.02,57.56 -114.71,71.53 -36.66,14 -75.98,20.86 -118.13,20.86 -69.3,0 -122.59,-16.81 -159.86,-50.64 -37.3,-33.64 -55.94,-76.8 -55.94,-129.29 0,-30.81 7.1,-58.96 21.08,-84.49 14.18,-25.53 32.64,-45.81 55.33,-61.21 22.88,-15.4 48.41,-27.15 76.99,-35.05 21.08,-5.46 52.89,-10.74 95.25,-16.01 86.32,-10.13 150.13,-22.48 190.88,-36.66 0.4,-14.61 0.61,-23.91 0.61,-27.76 0,-43.37 -10.13,-73.97 -30.41,-91.81 -27.36,-24.13 -68.08,-36.06 -121.98,-36.06 -50.45,0 -87.75,8.91 -111.67,26.54 -24.1,17.63 -41.73,48.83 -53.29,93.82l-104.56 -14.61c9.52,-44.78 25.13,-81.04 47,-108.59 21.9,-27.57 53.5,-48.65 94.83,-63.65 41.15,-14.79 89.18,-22.27 143.48,-22.27 53.9,0 97.88,6.28 131.71,19.04 33.64,12.78 58.56,28.58 74.36,47.83 15.83,19.25 26.96,43.56 33.46,72.96 3.45,18.24 5.25,51.06 5.25,98.28l0 141.83c0,99.1 2.23,161.72 6.71,188.26 4.24,26.54 13.15,51.88 26.14,76.19l-111.88 0c-10.74,-22.48 -17.63,-48.83 -20.65,-79.03zm-8.51 -237.09c-38.92,15.8 -97.27,29.19 -175.08,40.14 -44.19,6.28 -75.4,13.36 -93.64,21.26 -18.24,7.9 -32.21,19.46 -42.13,34.46 -9.94,15.19 -15.01,32 -15.01,50.64 0,28.18 10.74,51.88 32.42,70.73 21.69,18.85 53.29,28.37 94.83,28.37 41.15,0 77.81,-8.91 110.02,-26.96 32.03,-17.82 55.73,-42.34 70.73,-73.33 11.56,-24.13 17.23,-59.6 17.23,-106.39l0.61 -38.92zm189.85 -314.9l510.66 0 0 88.76 -201.83 0 0 542.26 -107 0 0 -542.26 -201.83 0 0 -88.76zm612.78 0l107 0 0 481.26 297.27 -481.26 114.87 0 0 631.02 -106.97 0 0 -478.23 -296.87 478.23 -115.3 0 0 -631.02zm819.06 345.31l0 -83.91c44.99,-0.4 75.8,-2.23 91.99,-5.25 16.41,-3.26 32.03,-12.57 46.61,-28.39 14.58,-15.8 21.87,-35.45 21.87,-59.15 0,-28.58 -9.52,-51.7 -28.76,-68.72 -19.25,-17.21 -43.98,-25.72 -74.58,-25.72 -60.18,0 -102.33,35.26 -126.43,105.78l-102.15 -17.02c31.63,-117.55 108.22,-176.3 229.4,-176.3 67.29,0 119.96,18.24 158.25,54.9 38.31,36.69 57.37,80.46 57.37,131.31 0,51.27 -24.95,92.21 -74.58,122.4 31.81,17.02 55.51,38.71 71.53,65.03 15.8,26.35 23.7,57.56 23.7,93.64 0,56.52 -20.65,102.33 -61.8,137.59 -41.33,35.23 -98.89,52.86 -173.06,52.86 -143.85,0 -227.36,-63.63 -250.24,-190.88l100.9 -21.87c9.12,40.11 27.57,71.32 55.51,93.4 27.97,22.11 59.78,33.03 95.86,33.03 36.06,0 66.07,-10.13 89.98,-30.59 23.89,-20.25 35.84,-46.21 35.84,-77.81 0,-24.52 -7.48,-45.78 -22.48,-64.02 -15.01,-18.24 -30.99,-29.59 -48.04,-34.04 -17.02,-4.67 -47.8,-6.89 -92.39,-6.89 -3.66,0 -11.74,0.19 -24.31,0.61zm829.8 206.68c-39.71,33.83 -78.02,57.56 -114.71,71.53 -36.66,14 -75.98,20.86 -118.13,20.86 -69.3,0 -122.59,-16.81 -159.86,-50.64 -37.3,-33.64 -55.94,-76.8 -55.94,-129.29 0,-30.81 7.1,-58.96 21.08,-84.49 14.18,-25.53 32.64,-45.81 55.33,-61.21 22.88,-15.4 48.41,-27.15 76.99,-35.05 21.08,-5.46 52.89,-10.74 95.25,-16.01 86.32,-10.13 150.13,-22.48 190.88,-36.66 0.4,-14.61 0.61,-23.91 0.61,-27.76 0,-43.37 -10.13,-73.97 -30.41,-91.81 -27.36,-24.13 -68.08,-36.06 -121.98,-36.06 -50.45,0 -87.75,8.91 -111.67,26.54 -24.1,17.63 -41.73,48.83 -53.29,93.82l-104.56 -14.61c9.52,-44.78 25.13,-81.04 47,-108.59 21.9,-27.57 53.5,-48.65 94.83,-63.65 41.15,-14.79 89.18,-22.27 143.48,-22.27 53.9,0 97.88,6.28 131.71,19.04 33.64,12.78 58.56,28.58 74.36,47.83 15.83,19.25 26.96,43.56 33.46,72.96 3.45,18.24 5.25,51.06 5.25,98.28l0 141.83c0,99.1 2.23,161.72 6.71,188.26 4.24,26.54 13.15,51.88 26.14,76.19l-111.88 0c-10.74,-22.48 -17.63,-48.83 -20.65,-79.03zm-8.51 -237.09c-38.92,15.8 -97.27,29.19 -175.08,40.14 -44.19,6.28 -75.4,13.36 -93.64,21.26 -18.24,7.9 -32.21,19.46 -42.13,34.46 -9.94,15.19 -15.01,32 -15.01,50.64 0,28.18 10.74,51.88 32.42,70.73 21.69,18.85 53.29,28.37 94.83,28.37 41.15,0 77.81,-8.91 110.02,-26.96 32.03,-17.82 55.73,-42.34 70.73,-73.33 11.56,-24.13 17.23,-59.6 17.23,-106.39l0.61 -38.92zm273.75 -314.9l106.97 0 0 543.48 296.69 0 0 -543.48 106.97 0 0 543.48 69.3 0 0 266.28 -87.54 0 0 -178.74 -492.39 0 0 -631.02zm695.26 0l107 0 0 481.26 297.27 -481.26 114.87 0 0 631.02 -106.97 0 0 -478.23 -296.87 478.23 -115.3 0 0 -631.02zm679.24 0l107 0 0 481.26 297.27 -481.26 114.87 0 0 631.02 -106.97 0 0 -478.23 -296.87 478.23 -115.3 0 0 -631.02zm1100.93 0l440.14 0 0 543.48 68.08 0 0 266.28 -87.54 0 0 -178.74 -497.27 0 0 178.74 -87.54 0 0 -266.28 55.94 0c75.37,-102.33 111.45,-283.48 108.19,-543.48zm88.76 88.76c-7.9,204.88 -39.5,356.44 -94.83,454.72l339.21 0 0 -454.72 -244.38 0zm967.21 337.99l110.63 14.61c-17.23,64.24 -49.44,114.29 -96.45,149.74 -47.03,35.47 -107,53.29 -180.14,53.29 -92.02,0 -164.95,-28.37 -218.85,-85.1 -53.92,-56.52 -80.86,-136.16 -80.86,-238.49 0,-105.78 27.15,-188.04 81.65,-246.42 54.51,-58.56 125.24,-87.73 212.17,-87.73 84.09,0 152.78,28.55 206.07,85.92 53.31,57.34 80.06,137.99 80.06,241.94 0,6.28 -0.21,15.8 -0.61,28.37l-469.94 0c4.06,69.09 23.52,122.19 58.78,158.85 35.05,36.69 79.03,55.12 131.52,55.12 39.1,0 72.53,-10.31 100.08,-30.99 27.78,-20.68 49.66,-53.71 65.88,-99.1zm-350.16 -171.42l351.35 0c-4.64,-53.1 -18.21,-92.82 -40.32,-119.35 -33.83,-41.15 -78,-61.8 -132.11,-61.8 -49.05,0 -90.16,16.41 -123.62,49.23 -33.22,32.82 -51.67,76.8 -55.3,131.92zm595.94 -255.33l107 0 0 481.26 297.27 -481.26 114.87 0 0 631.02 -106.97 0 0 -478.23 -296.87 478.23 -115.3 0 0 -631.02zm369.62 -233.43l72.93 0c-5.86,50.05 -24.1,88.55 -54.51,115.3 -30.38,26.96 -70.71,40.32 -121.18,40.32 -50.66,0 -91.17,-13.36 -121.37,-39.93 -30.2,-26.75 -48.44,-65.24 -54.32,-115.69l72.96 0c5.46,27.36 16.62,47.83 33.03,61.19 16.41,13.57 38.71,20.28 66.46,20.28 32.21,0 56.55,-6.5 72.96,-19.67 16.41,-12.96 27.55,-33.64 33.03,-61.8zm721.79 633.43l104.56 14.61c-11.56,71.92 -40.75,128.05 -87.96,168.8 -47.19,40.72 -105.36,60.98 -174.05,60.98 -86.13,0 -155.43,-28.15 -207.71,-84.49 -52.49,-56.34 -78.63,-136.98 -78.63,-241.94 0,-68.08 11.35,-127.47 33.85,-178.53 22.48,-50.87 56.73,-89.16 102.94,-114.5 46,-25.53 96.05,-38.28 150.34,-38.28 68.29,0 124.42,17.21 167.79,51.86 43.56,34.65 71.53,83.91 83.7,147.53l-103.34 15.8c-9.94,-42.34 -27.36,-74.15 -52.7,-95.65 -25.11,-21.26 -55.51,-32 -91.17,-32 -53.9,0 -97.67,19.25 -131.52,57.74 -33.64,38.71 -50.45,99.5 -50.45,182.98 0,84.7 16.2,146.1 48.62,184.41 32.64,38.28 74.97,57.53 127.07,57.53 42.15,0 77.2,-12.75 105.17,-38.49 28.15,-25.53 46,-65.03 53.5,-118.35zm139.79 -400l510.66 0 0 88.76 -201.83 0 0 542.26 -107 0 0 -542.26 -201.83 0 0 -88.76zm612.78 0l246.21 0c60.37,0 105.36,5.06 134.94,15.19 29.4,10.15 54.72,28.58 75.8,55.54 21.26,27.15 31.81,59.36 31.81,97.06 0,30.2 -6.28,56.52 -18.64,78.82 -12.57,22.51 -31.2,41.36 -56.34,56.34 29.59,9.94 54.11,28.37 73.75,55.51 19.46,26.96 29.19,59.17 29.19,96.26 -3.84,59.78 -25.34,104.16 -64.05,132.93 -38.71,28.98 -95.02,43.37 -168.8,43.37l-283.88 0 0 -631.02zm107 266.28l113.47 0c45.18,0 76.41,-2.44 93.21,-7.1 17.02,-4.85 32.21,-14.4 45.6,-28.98 13.36,-14.4 20.04,-31.81 20.04,-52.07 0,-33.43 -11.74,-56.55 -35.05,-69.72 -23.52,-13.15 -63.63,-19.64 -120.36,-19.64l-116.91 0 0 177.52zm0 277.2l140.43 0c60.37,0 101.91,-7.1 124.42,-21.08 22.48,-14.18 34.23,-38.31 35.45,-72.96 0,-20.04 -6.47,-38.89 -19.46,-56.12 -13.15,-17.23 -30.17,-28.15 -51.06,-32.61 -20.86,-4.67 -54.51,-6.89 -100.69,-6.89l-129.08 0 0 189.66zm539 -543.48l107 0 0 481.26 297.27 -481.26 114.87 0 0 631.02 -106.97 0 0 -478.23 -296.87 478.23 -115.3 0 0 -631.02zm679.24 0l107 0 0 481.26 297.27 -481.26 114.87 0 0 631.02 -106.97 0 0 -478.23 -296.87 478.23 -115.3 0 0 -631.02zm369.62 -233.43l72.93 0c-5.86,50.05 -24.1,88.55 -54.51,115.3 -30.38,26.96 -70.71,40.32 -121.18,40.32 -50.66,0 -91.17,-13.36 -121.37,-39.93 -30.2,-26.75 -48.44,-65.24 -54.32,-115.69l72.96 0c5.46,27.36 16.62,47.83 33.03,61.19 16.41,13.57 38.71,20.28 66.46,20.28 32.21,0 56.55,-6.5 72.96,-19.67 16.41,-12.96 27.55,-33.64 33.03,-61.8z"/>
  </g>
  <line class="fil4 str1" x1="-0" y1="5922.81" x2="35949.93" y2= "5922.81" />
 </g>
</svg>
