<?xml version="1.0" encoding="UTF-8"?>
<!DOCTYPE svg PUBLIC "-//W3C//DTD SVG 1.1//EN" "http://www.w3.org/Graphics/SVG/1.1/DTD/svg11.dtd">
<!-- Creator: CorelDRAW 2020 (64-Bit) -->
<svg xmlns="http://www.w3.org/2000/svg" xml:space="preserve" width="176.389mm" height="176.389mm" version="1.1" style="shape-rendering:geometricPrecision; text-rendering:geometricPrecision; image-rendering:optimizeQuality; fill-rule:evenodd; clip-rule:evenodd"
viewBox="0 0 662.6 662.6"
 xmlns:xlink="http://www.w3.org/1999/xlink"
 xmlns:xodm="http://www.corel.com/coreldraw/odm/2003">
 <defs>
  <style type="text/css">
   <![CDATA[
    .fil0 {fill:#015496}
   ]]>
  </style>
 </defs>
 <g id="Слой_x0020_1">
  <metadata id="CorelCorpID_0Corel-Layer"/>
  <path class="fil0" d="M662.6 331.3c0,182.97 -148.33,331.3 -331.3,331.3 -182.97,0 -331.3,-148.33 -331.3,-331.3 0,-182.97 148.33,-331.3 331.3,-331.3 182.97,0 331.3,148.33 331.3,331.3zm-397.56 -132.52l-51.54 0c-8.1,0 -14.72,6.63 -14.72,14.72 0,138.26 112.05,250.32 250.32,250.32 8.1,0 14.72,-6.63 14.72,-14.72l0 -51.39c0,-8.1 -6.63,-14.72 -14.72,-14.72 -18.26,0 -36.08,-2.95 -52.57,-8.39 -1.47,-0.59 -3.09,-0.74 -4.57,-0.74 -3.83,0 -7.51,1.47 -10.45,4.27l-32.39 32.39c-41.67,-21.35 -75.83,-55.36 -97.04,-97.03l32.4 -32.39c4.12,-4.12 5.3,-9.86 3.68,-15.02 -5.45,-16.49 -8.39,-34.16 -8.39,-52.57 0,-8.1 -6.63,-14.72 -14.72,-14.72zm-7.51 67.59c-3.53,-12.22 -5.74,-25.03 -6.63,-38.14l-22.23 0c1.33,19.44 5.15,38.14 11.19,55.8l17.67 -17.67zm176.84 145.48c-12.96,-0.88 -25.77,-3.09 -38.28,-6.63l-17.67 17.52c17.82,5.89 36.52,9.72 55.95,11.04l0 -21.94z"/>
 </g>
</svg>
