<?xml version="1.0" encoding="UTF-8"?>
<!DOCTYPE svg PUBLIC "-//W3C//DTD SVG 1.1//EN" "http://www.w3.org/Graphics/SVG/1.1/DTD/svg11.dtd">
<!-- Creator: CorelDRAW 2020 (64-Bit) -->
<svg xmlns="http://www.w3.org/2000/svg" xml:space="preserve" width="176.389mm" height="176.389mm" version="1.1" style="shape-rendering:geometricPrecision; text-rendering:geometricPrecision; image-rendering:optimizeQuality; fill-rule:evenodd; clip-rule:evenodd"
viewBox="0 0 533.79 533.79"
 xmlns:xlink="http://www.w3.org/1999/xlink"
 xmlns:xodm="http://www.corel.com/coreldraw/odm/2003">
 <defs>
  <style type="text/css">
   <![CDATA[
    .fil0 {fill:#015496;fill-rule:nonzero}
   ]]>
  </style>
 </defs>
 <g id="Слой_x0020_1">
  <metadata id="CorelCorpID_0Corel-Layer"/>
  <path class="fil0" d="M266.89 0c-147.39,0 -266.89,119.5 -266.89,266.89 0,147.39 119.5,266.89 266.89,266.89 147.39,0 266.89,-119.5 266.89,-266.89 0,-147.39 -119.5,-266.89 -266.89,-266.89zm131.09 182.84l-43.82 206.4c-3.23,14.63 -11.94,18.19 -24.11,11.3l-66.72 -49.15 -32.16 31c-3.11,4 -7.94,6.56 -13.34,6.56 -0.04,0 -0.07,0 -0.11,0l4.74 -67.92 123.66 -111.7c5.34,-4.74 -1.2,-7.43 -8.3,-2.69l-152.78 96.22 -65.83 -20.55c-14.23,-4.51 -14.63,-14.23 3,-21.22l257.24 -99.15c11.97,-4.36 22.37,2.85 18.5,20.93l0.02 -0.02z"/>
 </g>
</svg>
